<mxfile host="app.diagrams.net" agent="Mozilla/5.0 (Windows NT 10.0; Win64; x64) AppleWebKit/537.36 (KHTML, like Gecko) Chrome/131.0.0.0 Safari/537.36" version="25.0.3">
  <diagram name="หน้า-1" id="nECm6mR6-I2xmfD7EVWa">
    <mxGraphModel dx="1034" dy="446" grid="1" gridSize="10" guides="1" tooltips="1" connect="1" arrows="1" fold="1" page="1" pageScale="1" pageWidth="827" pageHeight="1169" math="0" shadow="0">
      <root>
        <mxCell id="0" />
        <mxCell id="1" parent="0" />
        <mxCell id="5QJx7iJbicUQDcCXMyBM-3" value="" style="edgeStyle=orthogonalEdgeStyle;rounded=0;orthogonalLoop=1;jettySize=auto;html=1;" edge="1" parent="1" source="5QJx7iJbicUQDcCXMyBM-1" target="5QJx7iJbicUQDcCXMyBM-2">
          <mxGeometry relative="1" as="geometry" />
        </mxCell>
        <mxCell id="5QJx7iJbicUQDcCXMyBM-1" value="start" style="strokeWidth=2;html=1;shape=mxgraph.flowchart.start_1;whiteSpace=wrap;" vertex="1" parent="1">
          <mxGeometry x="360" y="100" width="100" height="60" as="geometry" />
        </mxCell>
        <mxCell id="5QJx7iJbicUQDcCXMyBM-5" value="" style="edgeStyle=orthogonalEdgeStyle;rounded=0;orthogonalLoop=1;jettySize=auto;html=1;" edge="1" parent="1" source="5QJx7iJbicUQDcCXMyBM-2" target="5QJx7iJbicUQDcCXMyBM-4">
          <mxGeometry relative="1" as="geometry" />
        </mxCell>
        <mxCell id="5QJx7iJbicUQDcCXMyBM-2" value="สร้างตัวแปร&amp;nbsp;&lt;div&gt;int n&lt;/div&gt;&lt;div&gt;int first = 1&lt;/div&gt;&lt;div&gt;int second = 1&amp;nbsp;&lt;/div&gt;&lt;div&gt;int next&lt;/div&gt;&lt;div&gt;int sum = 0&lt;/div&gt;" style="whiteSpace=wrap;html=1;strokeWidth=2;" vertex="1" parent="1">
          <mxGeometry x="335" y="240" width="150" height="100" as="geometry" />
        </mxCell>
        <mxCell id="5QJx7iJbicUQDcCXMyBM-7" value="" style="edgeStyle=orthogonalEdgeStyle;rounded=0;orthogonalLoop=1;jettySize=auto;html=1;" edge="1" parent="1" source="5QJx7iJbicUQDcCXMyBM-4" target="5QJx7iJbicUQDcCXMyBM-6">
          <mxGeometry relative="1" as="geometry" />
        </mxCell>
        <mxCell id="5QJx7iJbicUQDcCXMyBM-4" value="รับค่าจากผู้ใช้" style="shape=parallelogram;perimeter=parallelogramPerimeter;whiteSpace=wrap;html=1;fixedSize=1;strokeWidth=2;" vertex="1" parent="1">
          <mxGeometry x="350" y="440" width="120" height="60" as="geometry" />
        </mxCell>
        <mxCell id="5QJx7iJbicUQDcCXMyBM-9" value="" style="edgeStyle=orthogonalEdgeStyle;rounded=0;orthogonalLoop=1;jettySize=auto;html=1;" edge="1" parent="1" source="5QJx7iJbicUQDcCXMyBM-6" target="5QJx7iJbicUQDcCXMyBM-8">
          <mxGeometry relative="1" as="geometry" />
        </mxCell>
        <mxCell id="5QJx7iJbicUQDcCXMyBM-6" value="แสดงคำว่า Series :&amp;nbsp;" style="shape=parallelogram;perimeter=parallelogramPerimeter;whiteSpace=wrap;html=1;fixedSize=1;strokeWidth=2;" vertex="1" parent="1">
          <mxGeometry x="330" y="585" width="160" height="60" as="geometry" />
        </mxCell>
        <mxCell id="5QJx7iJbicUQDcCXMyBM-11" value="" style="edgeStyle=orthogonalEdgeStyle;rounded=0;orthogonalLoop=1;jettySize=auto;html=1;" edge="1" parent="1" source="5QJx7iJbicUQDcCXMyBM-44" target="5QJx7iJbicUQDcCXMyBM-10">
          <mxGeometry relative="1" as="geometry" />
        </mxCell>
        <mxCell id="5QJx7iJbicUQDcCXMyBM-8" value="int i = 1" style="whiteSpace=wrap;html=1;strokeWidth=2;" vertex="1" parent="1">
          <mxGeometry x="350" y="725" width="120" height="60" as="geometry" />
        </mxCell>
        <mxCell id="5QJx7iJbicUQDcCXMyBM-13" value="" style="edgeStyle=orthogonalEdgeStyle;rounded=0;orthogonalLoop=1;jettySize=auto;html=1;" edge="1" parent="1" source="5QJx7iJbicUQDcCXMyBM-10" target="5QJx7iJbicUQDcCXMyBM-12">
          <mxGeometry relative="1" as="geometry" />
        </mxCell>
        <mxCell id="5QJx7iJbicUQDcCXMyBM-18" value="" style="edgeStyle=orthogonalEdgeStyle;rounded=0;orthogonalLoop=1;jettySize=auto;html=1;" edge="1" parent="1" source="5QJx7iJbicUQDcCXMyBM-10" target="5QJx7iJbicUQDcCXMyBM-17">
          <mxGeometry relative="1" as="geometry" />
        </mxCell>
        <mxCell id="5QJx7iJbicUQDcCXMyBM-10" value="i &amp;lt;= n ?" style="rhombus;whiteSpace=wrap;html=1;strokeWidth=2;" vertex="1" parent="1">
          <mxGeometry x="370" y="855" width="80" height="80" as="geometry" />
        </mxCell>
        <mxCell id="5QJx7iJbicUQDcCXMyBM-15" value="" style="edgeStyle=orthogonalEdgeStyle;rounded=0;orthogonalLoop=1;jettySize=auto;html=1;" edge="1" parent="1" source="5QJx7iJbicUQDcCXMyBM-12" target="5QJx7iJbicUQDcCXMyBM-14">
          <mxGeometry relative="1" as="geometry">
            <Array as="points">
              <mxPoint x="860" y="895" />
              <mxPoint x="860" y="2350" />
              <mxPoint x="414" y="2350" />
            </Array>
          </mxGeometry>
        </mxCell>
        <mxCell id="5QJx7iJbicUQDcCXMyBM-12" value="แสดงผลรวม" style="shape=parallelogram;perimeter=parallelogramPerimeter;whiteSpace=wrap;html=1;fixedSize=1;strokeWidth=2;" vertex="1" parent="1">
          <mxGeometry x="510" y="865" width="120" height="60" as="geometry" />
        </mxCell>
        <mxCell id="5QJx7iJbicUQDcCXMyBM-14" value="end" style="strokeWidth=2;html=1;shape=mxgraph.flowchart.start_1;whiteSpace=wrap;" vertex="1" parent="1">
          <mxGeometry x="364" y="2520" width="100" height="60" as="geometry" />
        </mxCell>
        <mxCell id="5QJx7iJbicUQDcCXMyBM-16" value="F" style="text;html=1;align=center;verticalAlign=middle;resizable=0;points=[];autosize=1;strokeColor=none;fillColor=none;" vertex="1" parent="1">
          <mxGeometry x="455" y="848" width="30" height="30" as="geometry" />
        </mxCell>
        <mxCell id="5QJx7iJbicUQDcCXMyBM-20" value="" style="edgeStyle=orthogonalEdgeStyle;rounded=0;orthogonalLoop=1;jettySize=auto;html=1;" edge="1" parent="1" source="5QJx7iJbicUQDcCXMyBM-17" target="5QJx7iJbicUQDcCXMyBM-19">
          <mxGeometry relative="1" as="geometry" />
        </mxCell>
        <mxCell id="5QJx7iJbicUQDcCXMyBM-41" value="" style="edgeStyle=orthogonalEdgeStyle;rounded=0;orthogonalLoop=1;jettySize=auto;html=1;" edge="1" parent="1" source="5QJx7iJbicUQDcCXMyBM-17" target="5QJx7iJbicUQDcCXMyBM-40">
          <mxGeometry relative="1" as="geometry" />
        </mxCell>
        <mxCell id="5QJx7iJbicUQDcCXMyBM-17" value="i == 1 || i == 2 ?" style="rhombus;whiteSpace=wrap;html=1;strokeWidth=2;" vertex="1" parent="1">
          <mxGeometry x="350" y="1015" width="120" height="115" as="geometry" />
        </mxCell>
        <mxCell id="5QJx7iJbicUQDcCXMyBM-22" value="" style="edgeStyle=orthogonalEdgeStyle;rounded=0;orthogonalLoop=1;jettySize=auto;html=1;" edge="1" parent="1" source="5QJx7iJbicUQDcCXMyBM-19" target="5QJx7iJbicUQDcCXMyBM-21">
          <mxGeometry relative="1" as="geometry" />
        </mxCell>
        <mxCell id="5QJx7iJbicUQDcCXMyBM-19" value="next = first + second" style="whiteSpace=wrap;html=1;strokeWidth=2;" vertex="1" parent="1">
          <mxGeometry x="540" y="1150" width="120" height="60" as="geometry" />
        </mxCell>
        <mxCell id="5QJx7iJbicUQDcCXMyBM-24" value="" style="edgeStyle=orthogonalEdgeStyle;rounded=0;orthogonalLoop=1;jettySize=auto;html=1;" edge="1" parent="1" source="5QJx7iJbicUQDcCXMyBM-21" target="5QJx7iJbicUQDcCXMyBM-23">
          <mxGeometry relative="1" as="geometry" />
        </mxCell>
        <mxCell id="5QJx7iJbicUQDcCXMyBM-21" value="first = second" style="whiteSpace=wrap;html=1;strokeWidth=2;" vertex="1" parent="1">
          <mxGeometry x="540" y="1290" width="120" height="60" as="geometry" />
        </mxCell>
        <mxCell id="5QJx7iJbicUQDcCXMyBM-26" value="" style="edgeStyle=orthogonalEdgeStyle;rounded=0;orthogonalLoop=1;jettySize=auto;html=1;" edge="1" parent="1" source="5QJx7iJbicUQDcCXMyBM-23" target="5QJx7iJbicUQDcCXMyBM-25">
          <mxGeometry relative="1" as="geometry" />
        </mxCell>
        <mxCell id="5QJx7iJbicUQDcCXMyBM-23" value="sum += next" style="whiteSpace=wrap;html=1;strokeWidth=2;" vertex="1" parent="1">
          <mxGeometry x="540" y="1430" width="120" height="60" as="geometry" />
        </mxCell>
        <mxCell id="5QJx7iJbicUQDcCXMyBM-28" value="" style="edgeStyle=orthogonalEdgeStyle;rounded=0;orthogonalLoop=1;jettySize=auto;html=1;" edge="1" parent="1" source="5QJx7iJbicUQDcCXMyBM-25" target="5QJx7iJbicUQDcCXMyBM-27">
          <mxGeometry relative="1" as="geometry" />
        </mxCell>
        <mxCell id="5QJx7iJbicUQDcCXMyBM-25" value="pritf( &quot;%d&quot;, next )&lt;div&gt;ตัวเลขในลำดับปัจจุบัน&lt;/div&gt;" style="shape=parallelogram;perimeter=parallelogramPerimeter;whiteSpace=wrap;html=1;fixedSize=1;strokeWidth=2;" vertex="1" parent="1">
          <mxGeometry x="510" y="1580" width="180" height="110" as="geometry" />
        </mxCell>
        <mxCell id="5QJx7iJbicUQDcCXMyBM-32" value="" style="edgeStyle=orthogonalEdgeStyle;rounded=0;orthogonalLoop=1;jettySize=auto;html=1;" edge="1" parent="1" source="5QJx7iJbicUQDcCXMyBM-27" target="5QJx7iJbicUQDcCXMyBM-31">
          <mxGeometry relative="1" as="geometry" />
        </mxCell>
        <mxCell id="5QJx7iJbicUQDcCXMyBM-34" value="" style="edgeStyle=orthogonalEdgeStyle;rounded=0;orthogonalLoop=1;jettySize=auto;html=1;" edge="1" parent="1" source="5QJx7iJbicUQDcCXMyBM-27" target="5QJx7iJbicUQDcCXMyBM-33">
          <mxGeometry relative="1" as="geometry" />
        </mxCell>
        <mxCell id="5QJx7iJbicUQDcCXMyBM-27" value="i &amp;lt; n ?" style="rhombus;whiteSpace=wrap;html=1;strokeWidth=2;" vertex="1" parent="1">
          <mxGeometry x="560" y="1785" width="80" height="80" as="geometry" />
        </mxCell>
        <mxCell id="5QJx7iJbicUQDcCXMyBM-29" value="T" style="text;html=1;align=center;verticalAlign=middle;resizable=0;points=[];autosize=1;strokeColor=none;fillColor=none;" vertex="1" parent="1">
          <mxGeometry x="375" y="938" width="30" height="30" as="geometry" />
        </mxCell>
        <mxCell id="5QJx7iJbicUQDcCXMyBM-30" value="F" style="text;html=1;align=center;verticalAlign=middle;resizable=0;points=[];autosize=1;strokeColor=none;fillColor=none;" vertex="1" parent="1">
          <mxGeometry x="465" y="1028" width="30" height="30" as="geometry" />
        </mxCell>
        <mxCell id="5QJx7iJbicUQDcCXMyBM-31" value="i ++&amp;nbsp;" style="whiteSpace=wrap;html=1;strokeWidth=2;" vertex="1" parent="1">
          <mxGeometry x="690" y="2150" width="120" height="60" as="geometry" />
        </mxCell>
        <mxCell id="5QJx7iJbicUQDcCXMyBM-33" value="printf( &quot; + &quot;)&lt;div&gt;แสดง + ค้่น&lt;/div&gt;" style="whiteSpace=wrap;html=1;strokeWidth=2;" vertex="1" parent="1">
          <mxGeometry x="540" y="1955" width="120" height="60" as="geometry" />
        </mxCell>
        <mxCell id="5QJx7iJbicUQDcCXMyBM-35" value="F" style="text;html=1;align=center;verticalAlign=middle;resizable=0;points=[];autosize=1;strokeColor=none;fillColor=none;" vertex="1" parent="1">
          <mxGeometry x="645" y="1768" width="30" height="30" as="geometry" />
        </mxCell>
        <mxCell id="5QJx7iJbicUQDcCXMyBM-36" value="T" style="text;html=1;align=center;verticalAlign=middle;resizable=0;points=[];autosize=1;strokeColor=none;fillColor=none;" vertex="1" parent="1">
          <mxGeometry x="555" y="1848" width="30" height="30" as="geometry" />
        </mxCell>
        <mxCell id="5QJx7iJbicUQDcCXMyBM-37" value="" style="shape=waypoint;sketch=0;fillStyle=solid;size=6;pointerEvents=1;points=[];fillColor=none;resizable=0;rotatable=0;perimeter=centerPerimeter;snapToPoint=1;" vertex="1" parent="1">
          <mxGeometry x="740" y="2090" width="20" height="20" as="geometry" />
        </mxCell>
        <mxCell id="5QJx7iJbicUQDcCXMyBM-39" style="edgeStyle=orthogonalEdgeStyle;rounded=0;orthogonalLoop=1;jettySize=auto;html=1;exitX=0.5;exitY=1;exitDx=0;exitDy=0;entryX=0.05;entryY=0.35;entryDx=0;entryDy=0;entryPerimeter=0;" edge="1" parent="1" source="5QJx7iJbicUQDcCXMyBM-33" target="5QJx7iJbicUQDcCXMyBM-37">
          <mxGeometry relative="1" as="geometry">
            <Array as="points">
              <mxPoint x="600" y="2100" />
            </Array>
          </mxGeometry>
        </mxCell>
        <mxCell id="5QJx7iJbicUQDcCXMyBM-40" value="next = 1" style="whiteSpace=wrap;html=1;strokeWidth=2;" vertex="1" parent="1">
          <mxGeometry x="350" y="1237.5" width="120" height="60" as="geometry" />
        </mxCell>
        <mxCell id="5QJx7iJbicUQDcCXMyBM-42" value="" style="shape=waypoint;sketch=0;fillStyle=solid;size=6;pointerEvents=1;points=[];fillColor=none;resizable=0;rotatable=0;perimeter=centerPerimeter;snapToPoint=1;" vertex="1" parent="1">
          <mxGeometry x="590" y="1380" width="20" height="20" as="geometry" />
        </mxCell>
        <mxCell id="5QJx7iJbicUQDcCXMyBM-43" style="edgeStyle=orthogonalEdgeStyle;rounded=0;orthogonalLoop=1;jettySize=auto;html=1;exitX=0.5;exitY=1;exitDx=0;exitDy=0;entryX=0;entryY=0.5;entryDx=0;entryDy=0;entryPerimeter=0;" edge="1" parent="1" source="5QJx7iJbicUQDcCXMyBM-40" target="5QJx7iJbicUQDcCXMyBM-42">
          <mxGeometry relative="1" as="geometry">
            <Array as="points">
              <mxPoint x="410" y="1390" />
            </Array>
          </mxGeometry>
        </mxCell>
        <mxCell id="5QJx7iJbicUQDcCXMyBM-45" value="" style="edgeStyle=orthogonalEdgeStyle;rounded=0;orthogonalLoop=1;jettySize=auto;html=1;" edge="1" parent="1" source="5QJx7iJbicUQDcCXMyBM-8" target="5QJx7iJbicUQDcCXMyBM-44">
          <mxGeometry relative="1" as="geometry">
            <mxPoint x="410" y="785" as="sourcePoint" />
            <mxPoint x="410" y="855" as="targetPoint" />
          </mxGeometry>
        </mxCell>
        <mxCell id="5QJx7iJbicUQDcCXMyBM-44" value="" style="shape=waypoint;sketch=0;fillStyle=solid;size=6;pointerEvents=1;points=[];fillColor=none;resizable=0;rotatable=0;perimeter=centerPerimeter;snapToPoint=1;" vertex="1" parent="1">
          <mxGeometry x="400" y="810" width="20" height="20" as="geometry" />
        </mxCell>
        <mxCell id="5QJx7iJbicUQDcCXMyBM-46" style="edgeStyle=orthogonalEdgeStyle;rounded=0;orthogonalLoop=1;jettySize=auto;html=1;exitX=0.5;exitY=1;exitDx=0;exitDy=0;entryX=0.05;entryY=0.25;entryDx=0;entryDy=0;entryPerimeter=0;" edge="1" parent="1" source="5QJx7iJbicUQDcCXMyBM-31" target="5QJx7iJbicUQDcCXMyBM-44">
          <mxGeometry relative="1" as="geometry">
            <Array as="points">
              <mxPoint x="750" y="2270" />
              <mxPoint x="130" y="2270" />
              <mxPoint x="130" y="820" />
            </Array>
          </mxGeometry>
        </mxCell>
      </root>
    </mxGraphModel>
  </diagram>
</mxfile>
